<svg xmlns="http://www.w3.org/2000/svg" xmlns:xlink="http://www.w3.org/1999/xlink" aria-hidden="true" role="img" class="iconify iconify--carbon" width="32" height="32" preserveAspectRatio="xMidYMid meet" viewBox="0 0 32 32"><path d="M8 8h2v4H8z" fill="currentColor"></path><path d="M8 14h2v4H8z" fill="currentColor"></path><path d="M14 8h2v4h-2z" fill="currentColor"></path><path d="M14 14h2v4h-2z" fill="currentColor"></path><path d="M8 20h2v4H8z" fill="currentColor"></path><path d="M14 20h2v4h-2z" fill="currentColor"></path><path d="M30 14a2 2 0 0 0-2-2h-6V4a2 2 0 0 0-2-2H4a2 2 0 0 0-2 2v26h28zM4 4h16v24H4zm18 24V14h6v14z" fill="currentColor"></path></svg>