<svg xmlns="http://www.w3.org/2000/svg" xmlns:xlink="http://www.w3.org/1999/xlink" aria-hidden="true" role="img" class="iconify iconify--clarity" width="32" height="32" preserveAspectRatio="xMidYMid meet" viewBox="0 0 36 36"><path d="M33.53 18.76l-6.93-3.19V6.43a1 1 0 0 0-.6-.9l-7.5-3.45a1 1 0 0 0-.84 0l-7.5 3.45a1 1 0 0 0-.58.91v9.14l-6.9 3.18a1 1 0 0 0-.58.91v9.78a1 1 0 0 0 .58.91l7.5 3.45a1 1 0 0 0 .84 0l7.08-3.26l7.08 3.26a1 1 0 0 0 .84 0l7.5-3.45a1 1 0 0 0 .58-.91v-9.78a1 1 0 0 0-.57-.91zm-2.81.91L25.61 22l-5.11-2.33l5.11-2.35zM18.1 4.08l5.11 2.35l-5.11 2.35L13 6.43zm-7.5 13.23l5.11 2.35L10.6 22l-5.11-2.33zm6.5 11.49l-6.5 3l-6.5-3v-7.57L10.18 24a1 1 0 0 0 .82 0l6.08-2.8zm-5.5-13.23V8l6.08 2.8a1 1 0 0 0 .84 0L24.6 8v7.58l-6.5 3zm20.51 13.24l-6.5 3l-6.51-3v-7.59L25.19 24a1 1 0 0 0 .81 0l6.08-2.8z" class="clr-i-outline clr-i-outline-path-1" fill="currentColor"></path></svg>