<svg xmlns="http://www.w3.org/2000/svg" xmlns:xlink="http://www.w3.org/1999/xlink" aria-hidden="true" role="img" class="iconify iconify--dashicons" width="32" height="32" preserveAspectRatio="xMidYMid meet" viewBox="0 0 20 20"><path d="M15.9 5.5C15.3 4.5 14.2 4 13 4H7c-1.2 0-2.3.5-2.9 1.5c-2.3 3.5-2.8 8.8-1.2 9.9c1.6 1.1 5.2-3.7 7.1-3.7s5.4 4.8 7.1 3.7c1.6-1.1 1.1-6.4-1.2-9.9zM8 9H7v1H6V9H5V8h1V7h1v1h1v1zm5.4.5c0 .5-.4.9-.9.9s-.9-.4-.9-.9s.4-.9.9-.9s.9.4.9.9zm1.9-2c0 .5-.4.9-.9.9s-.9-.4-.9-.9s.4-.9.9-.9s.9.4.9.9z" fill="currentColor"></path></svg>