<svg xmlns="http://www.w3.org/2000/svg" xmlns:xlink="http://www.w3.org/1999/xlink" aria-hidden="true" role="img" class="iconify iconify--emojione-monotone" width="32" height="32" preserveAspectRatio="xMidYMid meet" viewBox="0 0 64 64"><path d="M32 2C15.431 2 2 15.432 2 32s13.431 30 30 30c16.568-.001 30-13.432 30-30S48.568 2 32 2m.002 58c-5.521-.004-10-4.398-10-13.156v-3.995c0-.531.113-.849.822-.849h.729v3.52c0 8.879 3.319 12.854 8.448 12.857c5.131 0 8.442-3.977 8.444-12.859V42h.733c.708 0 .822.317.822.849v3.995c.002 8.758-4.477 13.152-9.998 13.156m-7.644-14.48V42H39.64v3.518c0 8.348-2.995 11.977-7.638 11.977c-4.641-.003-7.644-3.632-7.644-11.975m16.136 12.611c1.638-1.896 2.858-4.57 3.307-8.179c3.403-2.908 5.201-6.987 5.201-10.952c0-.493-.392-1-1.125-1H16.126c-.733 0-1.126.507-1.126 1c0 3.965 1.798 8.044 5.203 10.952c.449 3.626 1.68 6.308 3.328 8.205C12.5 54.578 4.5 44.209 4.5 32C4.5 16.836 16.836 4.5 32 4.5c15.163 0 27.5 12.336 27.5 27.5c0 12.197-7.992 22.541-19.006 26.131" fill="currentColor"></path><path d="M18.967 20.759c0-2.419 5.254-1.255 7.025.387c1.044-1.714.548-3.158.548-3.158s-1.521-1.075-3.76-1.487l-.005-2.248c-1.838-.566-3.813 0-3.813 0v2.089s-3.626.667-3.626 4.418c0 4.858 7.442 3.919 7.442 7.049c0 2.282-4.997 1.331-7.442-.489c-.759 1.838 0 3.424 0 3.424a14.654 14.654 0 0 0 3.624 1.019l.006 1.972s1.975.602 3.813 0v-2.104S27 31.399 27 27.81c0-4.665-8.033-4.262-8.033-7.051" fill="currentColor"></path><path d="M40.967 20.759c0-2.419 5.254-1.255 7.025.387c1.044-1.714.548-3.158.548-3.158s-1.521-1.075-3.76-1.487l-.005-2.248c-1.838-.566-3.813 0-3.813 0v2.089s-3.626.667-3.626 4.418c0 4.858 7.442 3.919 7.442 7.049c0 2.282-4.997 1.331-7.442-.489c-.759 1.838 0 3.424 0 3.424a14.666 14.666 0 0 0 3.624 1.019l.006 1.972s1.975.602 3.813 0v-2.104S49 31.399 49 27.81c0-4.665-8.033-4.262-8.033-7.051" fill="currentColor"></path><path d="M30.728 54.616l.003 1.282s1.233.391 2.383 0v-1.367s2.639-.152 2.639-2.484c0-3.031-5.021-2.77-5.021-4.582c0-1.572 3.285-.815 4.391.252c.652-1.113.344-2.053.344-2.053s-.951-.699-2.352-.967l-.002-1.462c-1.148-.368-2.383 0-2.383 0v1.358s-2.266.434-2.266 2.871c0 3.158 4.65 2.548 4.65 4.582c0 1.483-3.123.865-4.65-.318a3.039 3.039 0 0 0 0 2.227a8.828 8.828 0 0 0 2.264.661" fill="currentColor"></path></svg>