<svg xmlns="http://www.w3.org/2000/svg" xmlns:xlink="http://www.w3.org/1999/xlink" aria-hidden="true" role="img" class="iconify iconify--whh" width="32.04" height="32" preserveAspectRatio="xMidYMid meet" viewBox="0 0 1025 1024"><path d="M896.428 1024h-768q-53 0-90.5-37.5T.428 896V128q0-53 37.5-90.5t90.5-37.5h768q53 0 90.5 37.5t37.5 90.5v768q0 53-37.5 90.5t-90.5 37.5zm-448-832h-256q-26 0-45 19t-19 45v576q0 27 18.5 45.5t45.5 18.5h256V192zm448 64q0-26-19-45t-45-19h-320v704h320q26 0 45-18.5t19-45.5V256zm-672 512h128q13 0 22.5 9.5t9.5 22.5t-9.5 22.5t-22.5 9.5h-128q-13 0-22.5-9.5t-9.5-22.5t9.5-22.5t22.5-9.5zm128-64h-128q-13 0-22.5-9.5t-9.5-22.5t9.5-22.5t22.5-9.5h128q13 0 22.5 9.5t9.5 22.5t-9.5 22.5t-22.5 9.5zm0-128h-128q-13 0-22.5-9.5t-9.5-22.5t9.5-22.5t22.5-9.5h128q13 0 22.5 9.5t9.5 22.5t-9.5 22.5t-22.5 9.5zm0-128h-128q-13 0-22.5-9.5t-9.5-22.5t9.5-22.5t22.5-9.5h128q13 0 22.5 9.5t9.5 22.5t-9.5 22.5t-22.5 9.5zm0-128h-128q-13 0-22.5-9.5t-9.5-22.5t9.5-22.5t22.5-9.5h128q13 0 22.5 9.5t9.5 22.5t-9.5 22.5t-22.5 9.5z" fill="currentColor"></path></svg>